<?xml version="1.0" encoding="UTF-8"?>
<svg xmlns="http://www.w3.org/2000/svg" width="480" height="640" viewBox="0 0 700 900">
  <defs>
    <style>
      .cls-1 {
        fill: none;
        stroke-miterlimit: 10;
        stroke: #000000;
        stroke-width: 5px;
      }
      .cls-1:hover {
        fill: red;
      }
    </style>
  </defs>
  <g id="down_tooth">
    <path id="down1" class="cls-1" d="m541,540.08c0-16.65,12.01-24.97,32.36-24.91,11.77.03,24.57,7.69,26.38,20.04,2.61,17.8,2.4,23.55-11.16,27.82s-34.37,1.5-44.59-8.29c-3-2.87-3-5.48-3-14.65Z"/>
    <path id="down2" class="cls-1" d="m552.92,564.88c10.48-7.44,44.83,8.08,39.66,34.8-4.11,21.23-22.41,24.14-43.1,16.38s-14.92-6.03-15.52-29.31c-.42-16.38,18.97-21.87,18.97-21.87Z"/>
    <path id="down3" class="cls-1" d="m549.48,616.06c28.03,2.92,27.82,15.41,28.45,27.59.45,8.75,4.95-.39,0,20.69-2.15,9.15-12.06,21.86-24.14,24.14-16.96,3.21-37.93-6.9-43.97-19.83s1.1-15.12,7.59-26.38c10.07-17.49,5.29-28.99,32.06-26.2Z"/>
    <path id="down4" class="cls-1" d="m494.43,689.07c10.54-17.31,10.81-13.96,32.89-4.65s19.08,24.3,9.08,34.29-19.99,7.5-31.98,0-17.17-17.84-9.99-29.64Z"/>
    <path id="down5" class="cls-1" d="m472.44,725.31c-3.48-19.19,1.75-18.31,12.99-15.59s28.98,12.99,28.98,24.48-3,15.99-12.99,17.49-14.99.5-21.49-8.99-6.67-12.85-7.5-17.39Z"/>
    <path id="down6" class="cls-1" d="m445.96,749.19c-3.42-24.66,1-31.38,17.49-18.94s21.49,18.94,17.99,31.43-8.45,14.49-17.96,11.99-16.2-15.02-17.51-24.48Z"/>
    <path id="down7" class="cls-1" d="m435.46,741.7c12.1,13.6,20.68,27.76,16.49,32.92-6.94,8.54-2.16,4.7-10.49,8.56-5.27,2.44-6.91,3.25-13.99,3.5-9.74.34-6-15.26-6-21.87s-3.5-7.61-1.5-20.1,10.41-8.71,15.49-3Z"/>
    <path id="down8" class="cls-1" d="m392.36,778.72c-.46-15.76-.9-13.85,3.87-31.53s9.15-7.48,17.2,5.06,8.95,13.11,7.34,24.56-6.81,12.41-14,13.36-14.23-5.23-14.41-11.46Z"/>
    <path id="down9" class="cls-1" d="m369.48,764c4.87-16.53,14.33-36.39,19.58-17.28s5.15,21.97,3.29,32-.9,10.7-8.55,11.56-10.51.05-17.67-3.61.48-12.96,3.34-22.68Z"/>
    <path id="down10" class="cls-1" d="m349.42,744.33c9.08-13.37,17.2-9.95,15.76,5.06s-5,19.47-2.02,28.38-5.14,10.18-9.92,8.91-10.03-3.66-17.2-7-4.3-9.8,0-14.93,13.37-20.42,13.37-20.42Z"/>
    <path id="down11" class="cls-1" d="m321.71,730.26c15.66-9.49,21.97-7.31,19.11,8.64s-3.82,36.4-12.42,35.72-16.24,2.19-20.54-5.93-3.82-14.25-4.3-19.3c0,0,4.78-10.16,8.12-11.67s2.41-2.85,10.03-7.46Z"/>
    <path id="down12" class="cls-1" d="m288.67,712.33c18.04-7.26,24.36-1.82,22.93,10.59s-5.25,24.32-15.29,26.95c-12.06,3.17-13.85,1.62-21.97-5.06s-6.69-4.74-3.34-16.94,9.18-12.12,17.67-15.54Z"/>
    <path id="down13" class="cls-1" d="m262.96,682.25c11.49-5.19,19.58-9.08,24.84,0s7.64,11.33,7.16,18.32.48,5.08-11.46,13.2-17.67,14.05-24.84,10.37-7.64-4.95-10.99-13.15-2.87-8.2,0-17.28,10.25-9.19,15.29-11.46Z"/>
    <path id="down14" class="cls-1" d="m222.84,619.98c43.68-12.48,36.78,1.11,42.03,10.67s8.12,14.28,11.46,21.71.59,13.64-6.15,18.89-19.05,16.54-24.84,17.82-11.52,1.76-17.25-3.49-13.37-11.94-18.63-19.58-4.3-19.58,0-27.7,5.92-16.18,13.37-18.31Z"/>
    <path id="down15" class="cls-1" d="m211.85,565.9c15.59-6.07,28.18-1.17,35.82,14.12s7.93,21.39,0,28.66-20.06,12.58-35.82,11.31-10.51-3.19-15.76-14.65-4.78-14.81,0-26.27,9.08-10.56,15.76-13.16Z"/>
    <path id="down16" class="cls-1" d="m215.2,515.37c9,1.61,24.58,6.37,26.62,15.92s7.29,16.72-2.26,23.41-26.27,13.29-37.26,8.32-15.29-8.8-19.11-16.92-2.27-12.9,9.13-21.49,18.14-10.08,22.87-9.24Z"/>
  </g>
  <g id="up_tooth">
    <path id="up1" class="cls-1" d="m530.67,429.06c1.13-16.89,17.71-21.8,30.52-22.35s30.85-.55,31.91,11.17,3.52,20.17-4.39,27.25-14.99,8.18-23.98,8.45-14.17-2.45-22.07-7.09-12.34-12.19-11.99-17.44Z"/>
    <path id="up2" class="cls-1" d="m552.92,402.39c10.48,7.44,44.83-8.08,39.66-34.8-4.11-21.23-22.41-24.14-43.1-16.38-20.69,7.76-14.92,6.03-15.52,29.31-.42,16.38,18.97,21.87,18.97,21.87Z"/>
    <path id="up3" class="cls-1" d="m549.47,351.21c28.03-2.92,27.82-15.41,28.45-27.59.45-8.75,4.95.39,0-20.69-2.15-9.15-12.06-21.86-24.14-24.14-16.96-3.21-37.93,6.9-43.97,19.83-6.03,12.93,1.1,15.12,7.59,26.38,10.07,17.49,5.29,28.99,32.06,26.2Z"/>
    <path id="up4" class="cls-1" d="m494.42,278.19c10.54,17.31,10.81,13.96,32.89,4.65s19.08-24.3,9.08-34.29-19.99-7.5-31.98,0-17.17,17.84-9.99,29.64Z"/>
    <path id="up5" class="cls-1" d="m472.44,241.96c-3.48,19.19,1.75,18.31,12.99,15.59s28.98-12.99,28.98-24.48-3-15.99-12.99-17.49-14.99-.5-21.49,8.99-6.67,12.85-7.5,17.39Z"/>
    <path id="up6" class="cls-1" d="m445.95,218.07c-3.42,24.66,1,31.38,17.49,18.94s21.49-18.94,17.99-31.43-8.45-14.49-17.96-11.99-16.2,15.02-17.51,24.48Z"/>
    <path id="up7" class="cls-1" d="m435.46,225.57c12.1-13.6,20.68-27.76,16.49-32.92-6.94-8.54-2.16-4.7-10.49-8.56-5.27-2.44-6.91-3.25-13.99-3.5-9.74-.34-6,15.26-6,21.87s-3.5,7.61-1.5,20.1,10.41,8.71,15.49,3Z"/>
    <path id="up8" class="cls-1" d="m392.35,188.54c-.46,15.76-.9,13.85,3.87,31.53,4.78,17.67,9.15,7.48,17.2-5.06,8.05-12.54,8.95-13.11,7.34-24.56s-6.81-12.41-14-13.36-14.23,5.23-14.41,11.46Z"/>
    <path id="up9" class="cls-1" d="m369.48,203.26c4.87,16.53,14.33,36.39,19.58,17.28,5.25-19.11,5.15-21.97,3.29-32s-.9-10.7-8.55-11.56-10.51-.05-17.67,3.61.48,12.96,3.34,22.68Z"/>
    <path id="up10" class="cls-1" d="m349.42,222.94c9.08,13.37,17.2,9.95,15.76-5.06s-5-19.47-2.02-28.38-5.14-10.18-9.92-8.91-10.03,3.66-17.2,7-4.3,9.8,0,14.93,13.37,20.42,13.37,20.42Z"/>
    <path id="up11" class="cls-1" d="m321.71,237.01c15.66,9.49,21.97,7.31,19.11-8.64s-3.82-36.4-12.42-35.72-16.24-2.19-20.54,5.93-3.82,14.25-4.3,19.3c0,0,4.78,10.16,8.12,11.67s2.41,2.85,10.03,7.46Z"/>
    <path id="up12" class="cls-1" d="m288.67,254.94c18.04,7.26,24.36,1.82,22.93-10.59s-5.25-24.32-15.29-26.95c-12.06-3.17-13.85-1.62-21.97,5.06s-6.69,4.74-3.34,16.94,9.18,12.12,17.67,15.54Z"/>
    <path id="up13" class="cls-1" d="m262.96,285.02c11.49,5.19,19.58,9.08,24.84,0s7.64-11.33,7.16-18.32.48-5.08-11.46-13.2-17.67-14.05-24.84-10.37-7.64,4.95-10.99,13.15-2.87,8.2,0,17.28,10.25,9.19,15.29,11.46Z"/>
    <path id="up14" class="cls-1" d="m222.84,347.28c43.68,12.48,36.78-1.11,42.03-10.67s8.12-14.28,11.46-21.71.59-13.64-6.15-18.89-19.05-16.54-24.84-17.82-11.52-1.76-17.25,3.49-13.37,11.94-18.63,19.58-4.3,19.58,0,27.7,5.92,16.18,13.37,18.31Z"/>
    <path id="up15" class="cls-1" d="m211.85,401.37c15.59,6.07,28.18,1.17,35.82-14.12s7.93-21.39,0-28.66-20.06-12.58-35.82-11.31-10.51,3.19-15.76,14.65-4.78,14.81,0,26.27,9.08,10.56,15.76,13.16Z"/>
    <path id="up16" class="cls-1" d="m215.19,451.9c9-1.61,24.58-6.37,26.62-15.92s7.29-16.72-2.26-23.41-26.27-13.29-37.26-8.32-15.29,8.8-19.11,16.92-2.27,12.9,9.13,21.49,18.14,10.08,22.87,9.24Z"/>
  </g>
</svg>